<svg width="32" height="32" viewBox="0 0 32 32" fill="black" xmlns="http://www.w3.org/2000/svg">
<path d="M14.912 4C17.0562 4.00036 19.1612 4.57526 21.008 5.6649C22.8547 6.75454 24.3758 8.31912 25.4129 10.1959C26.45 12.0726 26.9653 14.193 26.9052 16.3364C26.8451 18.4798 26.2118 20.568 25.0711 22.3836C23.9304 24.1993 22.3241 25.6762 20.4191 26.6606C18.5142 27.645 16.3803 28.1011 14.2394 27.9813C12.0985 27.8614 10.0288 27.1702 8.24563 25.9793C6.46245 24.7885 5.03092 23.1416 4.09995 21.21C4.0327 21.0713 3.99842 20.9189 3.9998 20.7648C4.00117 20.6107 4.03815 20.4589 4.10786 20.3215C4.17756 20.184 4.2781 20.0645 4.40163 19.9723C4.52516 19.8801 4.66833 19.8177 4.81995 19.79C7.37195 19.328 11.376 17.916 12.976 13.65C14.102 10.65 14 7.62 13.542 5.19C13.5157 5.04843 13.5203 4.90286 13.5554 4.76323C13.5906 4.6236 13.6555 4.49322 13.7457 4.38099C13.8359 4.26876 13.9493 4.17733 14.0781 4.11295C14.2069 4.04858 14.348 4.01278 14.492 4.008C14.632 4 14.772 4 14.912 4Z"/>
</svg>
